<?xml version="1.0" standalone="no"?>
<!DOCTYPE svg PUBLIC "-//W3C//DTD SVG 20010904//EN"
 "http://www.w3.org/TR/2001/REC-SVG-20010904/DTD/svg10.dtd">
<svg version="1.0" xmlns="http://www.w3.org/2000/svg"
 width="173.000000pt" height="173.000000pt" viewBox="0 0 173.000000 173.000000"
 preserveAspectRatio="xMidYMid meet">
<metadata>
Created by potrace 1.14, written by Peter Selinger 2001-2017
</metadata>
<g transform="translate(0.000000,173.000000) scale(0.100000,-0.100000)"
fill="#000000" stroke="none">
<path d="M100 855 l0 -696 229 2 c177 1 241 5 278 17 26 9 51 20 55 26 4 6 8
8 8 3 0 -21 95 62 99 88 2 6 8 17 15 25 33 39 36 93 33 555 l-2 460 -24 47
c-24 51 -87 118 -108 118 -7 0 -13 5 -13 12 0 6 -3 8 -6 5 -4 -3 -15 -2 -26 4
-36 19 -63 22 -300 26 l-238 5 0 -697z m396 462 c8 3 14 0 14 -5 0 -6 9 -13
19 -17 10 -3 22 -18 27 -33 4 -15 8 -198 8 -406 1 -341 0 -383 -16 -418 -10
-22 -22 -37 -28 -33 -5 3 -10 2 -10 -3 0 -4 -21 -9 -47 -11 -26 -1 -49 -4 -52
-6 -2 -2 -12 0 -22 6 -14 7 -19 6 -19 -2 0 -7 -3 -9 -7 -5 -5 4 -8 215 -9 469
l0 462 60 5 c34 3 62 2 64 -2 2 -4 10 -4 18 -1z"/>
<path d="M1003 855 l0 -696 126 3 126 3 0 277 c0 152 3 279 7 283 6 6 106 10
173 6 20 -1 20 -7 20 -286 l-1 -285 127 0 127 0 1 695 0 696 -127 -3 -127 -3
-1 -280 c-1 -154 -2 -287 -3 -295 -1 -13 -17 -16 -91 -15 -49 0 -93 4 -97 9
-4 4 -8 137 -8 294 l0 287 -126 3 -126 3 0 -696z"/>
</g>
</svg>
